<svg width="80" height="17" viewBox="0 0 80 17" fill="none" xmlns="http://www.w3.org/2000/svg">
<path d="M9.52249 2.70325C8.51531 0.893447 7.05031 0 5.10461 0C3.93719 0 2.93 0.412359 2.12883 1.21417C1.32766 2.01598 0.915624 3.00107 0.915624 4.21524C0.915624 9.16356 7.73703 8.4763 7.73703 11.6148C7.73703 13.0123 6.72984 14.0203 5.28773 14.0203C3.70828 14.0203 2.63242 12.8977 2.06015 10.6297L0 11.9355C0.572265 14.593 2.54086 16.4028 5.28773 16.4028C6.75273 16.4028 7.94304 15.9446 8.88156 15.0512C9.82007 14.1577 10.3008 12.9664 10.3008 11.5232C10.3237 8.63666 7.78281 7.49121 5.86 6.64358C4.50945 6.00214 3.43359 5.20032 3.43359 4.03197C3.43359 3.04688 4.09742 2.29089 5.10461 2.29089C6.06601 2.29089 6.86718 2.88652 7.48523 4.05488L9.52249 2.70325Z" fill="#E29507"/>
<path d="M13.5825 6.78104V12.2792C13.5825 15.0053 15.0704 16.4028 17.3595 16.4028C18.0233 16.4028 18.6414 16.2653 19.2136 15.9904L18.5956 13.9744C18.2522 14.1806 17.886 14.2952 17.4968 14.2952C16.4668 14.2952 15.9632 13.6766 15.9632 12.4166V6.78104H18.9618V4.67342H15.9632V0L13.5825 1.48908V4.67342H11.6597V6.78104H13.5825Z" fill="#E29507"/>
<path d="M30.8474 4.67342H28.4668V9.34684C28.4668 10.8588 28.1692 12.073 27.5741 12.9664C27.0018 13.8599 26.3151 14.2952 25.5139 14.2952C24.3236 14.2952 23.7284 13.585 23.7284 12.1875V4.67342H21.3478V12.9435C21.3478 15.1428 22.6984 16.4028 24.7356 16.4028C26.2693 16.4028 27.6427 15.6239 28.4668 14.2493V16.2195H30.8474V4.67342Z" fill="#E29507"/>
<path d="M37.1683 4.49015C36.1382 4.49015 35.2912 4.81087 34.6274 5.45232C33.9636 6.07086 33.6202 6.84976 33.6202 7.76612C33.6202 9.18647 34.4443 10.2403 36.0924 10.9276C36.4587 11.0879 37.3056 11.3857 37.649 11.5461C37.8321 11.6148 38.0381 11.7294 38.2441 11.8668C38.679 12.1188 38.8393 12.3937 38.8393 12.7832C38.8393 13.7912 38.3128 14.2952 37.2827 14.2952C36.2069 14.2952 35.3599 13.6079 34.7419 12.2104L32.7275 13.3101C33.4371 14.9824 34.9937 16.4028 37.1912 16.4028C38.4044 16.4028 39.3658 16.0591 40.0983 15.349C40.8308 14.6388 41.197 13.7683 41.197 12.7374C41.1055 11.4774 40.6705 10.7901 39.7549 10.2403C39.114 9.80501 38.7706 9.69047 37.9694 9.39265C36.9851 9.02611 36.596 8.84284 36.2069 8.45339C36.0008 8.24721 35.9093 7.99521 35.9093 7.74321C35.9093 7.01013 36.4129 6.59777 37.0538 6.59777C37.855 6.59777 38.5188 6.9414 39.0682 7.65158L40.579 6.32286C39.8465 5.20032 38.5646 4.49015 37.1683 4.49015Z" fill="#E29507"/>
<path d="M44.3865 6.78104V12.2792C44.3865 15.0053 45.8744 16.4028 48.1635 16.4028C48.8273 16.4028 49.4453 16.2653 50.0176 15.9904L49.3995 13.9744C49.0562 14.1806 48.6899 14.2952 48.3008 14.2952C47.2707 14.2952 46.7671 13.6766 46.7671 12.4166V6.78104H49.7658V4.67342H46.7671V0L44.3865 1.48908V4.67342H42.4637V6.78104H44.3865Z" fill="#E29507"/>
<path d="M52.7133 16.2195H55.0939V0H52.7133V16.2195Z" fill="#E29507"/>
<path d="M63.0588 6.59777C64.684 6.59777 65.6454 7.67448 65.8515 9.11775H60.2433C60.5179 7.62867 61.5251 6.59777 63.0588 6.59777ZM68.3694 10.0799C68.3694 7.49121 66.7442 4.49015 63.0588 4.49015C59.259 4.49015 57.6795 7.69739 57.6795 10.4465C57.6795 13.1955 59.259 16.4028 63.0588 16.4028C65.5997 16.4028 66.9502 15.4177 68.1176 13.1497L66.0804 12.3479C65.5081 13.5621 64.3407 14.2952 63.0588 14.2952C61.2504 14.2952 60.1975 12.9206 60.1975 11.1108H68.3694V10.0799Z" fill="#E29507"/>
<path d="M74.1972 10.6756C72.9154 11.9585 72.9154 14.1577 74.1972 15.4864C75.5249 16.7693 77.7224 16.7693 79.0043 15.4864C80.3319 14.1577 80.3319 11.9585 79.0043 10.6756C77.7224 9.34684 75.5249 9.34684 74.1972 10.6756Z" fill="#E29507"/>
</svg>
